<svg width="26" height="26" viewBox="0 0 26 26" fill="none" xmlns="http://www.w3.org/2000/svg">
<path fill-rule="evenodd" clip-rule="evenodd" d="M13 26C20.1797 26 26 20.1797 26 13C26 5.8203 20.1797 0 13 0C5.8203 0 0 5.8203 0 13C0 20.1797 5.8203 26 13 26ZM12.2383 8.55176C11.5938 8.23438 10.8149 8.07568 9.90186 8.07568C8.19287 8.07568 6.88916 8.53223 5.99072 9.44531C5.10205 10.3535 4.65771 11.5962 4.65771 13.1733C4.65771 14.6626 5.06299 15.8589 5.87354 16.7622C6.71826 17.7095 7.88525 18.1831 9.37451 18.1831C10.6392 18.1831 11.645 17.873 12.3921 17.2529V15.2021L12.3701 15.1875C12.2236 15.3975 12.0454 15.5732 11.8354 15.7148C11.2593 16.1104 10.5073 16.3081 9.57959 16.3081C8.75928 16.3081 8.1001 16.0737 7.60205 15.605C7.00146 15.0435 6.70117 14.189 6.70117 13.0415C6.70117 12.0552 6.93799 11.2959 7.41162 10.7637C7.65576 10.4902 7.96826 10.2803 8.34912 10.1338C8.72998 9.98242 9.11816 9.90674 9.51367 9.90674C9.90918 9.90674 10.2363 9.92871 10.4951 9.97266C11.374 10.1094 11.9502 10.3877 12.2236 10.8076L12.2383 10.793V8.55176ZM17.6362 18C17.9927 18 18.249 18.0098 18.4053 18.0293L18.4199 18.0073C18.4004 17.9683 18.3906 17.8779 18.3906 17.7363C18.3906 17.5898 18.4614 17.2725 18.603 16.7842L18.8594 15.9272L21.5327 8.2002C21.4351 8.23926 21.0933 8.25879 20.5073 8.25879C20.0776 8.25879 19.7163 8.24902 19.4233 8.22949L17.4897 14.8579L15.2852 8.2002C15.1533 8.23926 14.853 8.25879 14.3843 8.25879C13.9155 8.25879 13.5298 8.24902 13.2271 8.22949L15.9517 15.9492L16.2593 16.9307C16.3325 17.1699 16.3862 17.353 16.4204 17.48C16.4546 17.6069 16.4741 17.6948 16.479 17.7437C16.4888 17.7925 16.4937 17.8389 16.4937 17.8828C16.4937 17.9268 16.4839 17.9658 16.4644 18L16.4717 18.0146C16.5791 18.0049 16.6987 18 16.8306 18H17.6362Z" fill="#242424"/>
</svg>
